<svg width="304" height="304" viewBox="0 0 304 304" fill="none" xmlns="http://www.w3.org/2000/svg">
<rect width="304" height="304" rx="48" fill="white"/>
<rect x="193.708" y="232.634" width="33.3659" height="33.3659" rx="8" fill="#000000"/>
<rect x="154.78" y="232.634" width="33.3659" height="33.3659" rx="8" fill="#000000"/>
<rect x="115.854" y="232.634" width="33.3659" height="33.3659" rx="8" fill="#000000"/>
<rect x="115.854" y="193.708" width="33.3659" height="33.3659" rx="8" fill="#000000"/>
<rect x="115.854" y="154.78" width="33.3659" height="33.3659" rx="8" fill="#000000"/>
<rect x="115.854" y="115.854" width="33.3659" height="33.3659" rx="8" fill="#000000"/>
<rect x="38" y="232.634" width="33.3659" height="33.3659" rx="8" fill="#000000"/>
<rect x="38" y="193.708" width="33.3659" height="33.3659" rx="8" fill="#000000"/>
<rect x="38" y="154.78" width="33.3659" height="33.3659" rx="8" fill="#000000"/>
<rect x="38" y="115.854" width="33.3659" height="33.3659" rx="8" fill="#000000"/>
<rect x="38" y="76.9268" width="33.3659" height="33.3659" rx="8" fill="#000000"/>
<rect x="38" y="38" width="33.3659" height="33.3659" rx="8" fill="#000000"/>
<rect x="76.9268" y="38" width="33.3659" height="33.3659" rx="8" fill="#000000"/>
<rect x="115.854" y="38" width="33.3659" height="33.3659" rx="8" fill="#000000"/>
<rect x="154.78" y="38" width="33.3659" height="33.3659" rx="8" fill="#000000"/>
<rect x="193.708" y="38" width="33.3659" height="33.3659" rx="8" fill="#000000"/>
<rect x="232.634" y="38" width="33.3659" height="33.3659" rx="8" fill="#000000"/>
<rect x="232.634" y="76.9268" width="33.3659" height="33.3659" rx="8" fill="#000000"/>
<rect x="232.634" y="115.854" width="33.3659" height="33.3659" rx="8" fill="#000000"/>
<rect x="232.634" y="154.78" width="33.3659" height="33.3659" rx="8" fill="#000000"/>
<rect x="232.634" y="193.708" width="33.3659" height="33.3659" rx="8" fill="#000000"/>
<rect x="232.634" y="232.634" width="33.3659" height="33.3659" rx="8" fill="#000000"/>
</svg>
