<svg width="18" height="17" viewBox="0 0 18 17" fill="none" xmlns="http://www.w3.org/2000/svg">
<path d="M16.44 0H1.1C0.49 0 0 0.49 0 1.1V15.85C0 16.48 0.51 17 1.15 17C1.78 17 2.3 16.49 2.3 15.85V3.39C2.3 2.78 2.79 2.29 3.4 2.29H14.09C14.69 2.29 15.18 2.78 15.19 3.38L15.29 13.57C15.29 14.18 14.8 14.68 14.19 14.68H10.89C10.28 14.68 9.79 14.19 9.79 13.58L9.77 6.28C9.77 5.65 9.26 5.14 8.62 5.14C7.99 5.14 7.47 5.65 7.47 6.29L7.49 15.9C7.49 16.51 7.98 17 8.59 17H16.45C17.06 17 17.55 16.51 17.55 15.9V1.1C17.55 0.49 17.06 0 16.45 0H16.44Z" fill="#B81A56"/>
</svg>
