<svg width="512" height="512" viewBox="0 0 512 512" fill="none" xmlns="http://www.w3.org/2000/svg">
<path d="M256 0L478 128V384L256 512L34 384V128L256 0Z" fill="#673AB8"/>
<path d="M100.503 375.317C125.718 408.179 215.778 381.398 301.657 315.501C387.536 249.604 436.713 169.544 411.497 136.683C386.281 103.821 296.222 130.601 210.343 196.498C124.464 262.395 75.287 342.455 100.503 375.317Z" stroke="white" stroke-width="16"/>
<path d="M411.497 375.317C436.713 342.455 387.536 262.395 301.657 196.498C215.778 130.601 125.719 103.821 100.503 136.683C75.2871 169.544 124.464 249.604 210.343 315.501C296.222 381.398 386.282 408.179 411.497 375.317Z" stroke="white" stroke-width="16"/>
<path d="M256 290C274.778 290 290 274.778 290 256C290 237.222 274.778 222 256 222C237.222 222 222 237.222 222 256C222 274.778 237.222 290 256 290Z" fill="white"/>
</svg>
