<svg width="255" height="255" viewBox="0 0 255 255" fill="none" xmlns="http://www.w3.org/2000/svg">
<rect x="173.714" y="217.143" width="37.2245" height="37.2245" fill="#ffffff"/>
<rect x="130.286" y="217.143" width="37.2245" height="37.2245" fill="#ffffff"/>
<rect x="86.8569" y="217.143" width="37.2245" height="37.2245" fill="#ffffff"/>
<rect x="86.8569" y="173.714" width="37.2245" height="37.2245" fill="#ffffff"/>
<rect x="86.8569" y="130.286" width="37.2245" height="37.2245" fill="#ffffff"/>
<rect x="86.8569" y="86.8569" width="37.2245" height="37.2245" fill="#ffffff"/>
<rect y="217.143" width="37.2245" height="37.2245" fill="#ffffff"/>
<rect y="173.714" width="37.2245" height="37.2245" fill="#ffffff"/>
<rect y="130.286" width="37.2245" height="37.2245" fill="#ffffff"/>
<rect y="86.8569" width="37.2245" height="37.2245" fill="#ffffff"/>
<rect y="43.4287" width="37.2245" height="37.2245" fill="#ffffff"/>
<rect width="37.2245" height="37.2245" fill="#ffffff"/>
<rect x="43.4287" width="37.2245" height="37.2245" fill="#ffffff"/>
<rect x="86.8569" width="37.2245" height="37.2245" fill="#ffffff"/>
<rect x="130.286" width="37.2245" height="37.2245" fill="#ffffff"/>
<rect x="173.714" width="37.2245" height="37.2245" fill="#ffffff"/>
<rect x="217.143" width="37.2245" height="37.2245" fill="#ffffff"/>
<rect x="217.143" y="43.4287" width="37.2245" height="37.2245" fill="#ffffff"/>
<rect x="217.143" y="86.8569" width="37.2245" height="37.2245" fill="#ffffff"/>
<rect x="217.143" y="130.286" width="37.2245" height="37.2245" fill="#ffffff"/>
<rect x="217.143" y="173.714" width="37.2245" height="37.2245" fill="#ffffff"/>
<rect x="217.143" y="217.143" width="37.2245" height="37.2245" fill="#ffffff"/>
</svg>
